<svg width="24" height="24" viewBox="0 0 24 24" fill="none" xmlns="http://www.w3.org/2000/svg">
<path d="M19.8862 7.40826C19.8862 5.59094 18.4087 4.11336 16.5914 4.11336H7.40768C5.59036 4.11336 4.11278 5.59094 4.11278 7.40826V16.5919C4.11278 18.4092 5.59036 19.8868 7.40768 19.8868H16.5914C18.4087 19.8868 19.8862 18.4092 19.8862 16.5919V7.40826ZM7.40768 3.05009H16.5914C18.9985 3.05009 20.9495 5.00108 20.9495 7.40826V16.5919C20.9495 18.9991 18.9985 20.9501 16.5914 20.9501H7.40768C5.0005 20.9501 3.04951 18.9991 3.04951 16.5919V7.40826C3.04951 5.00108 5.0005 3.05009 7.40768 3.05009Z" fill="#262626" stroke="white" stroke-width="0.1"/>
<path d="M10.3675 14.2381L15.7357 8.97657C16.0258 8.69309 16.4899 8.69655 16.7726 8.98652L16.7728 8.98679C17.0566 9.27573 17.0522 9.74068 16.7634 10.0236L16.7634 10.0236L10.8111 15.8568C10.811 15.8568 10.811 15.8569 10.8109 15.8569C10.6676 15.9965 10.4829 16.0667 10.2975 16.0667C10.1122 16.0667 9.92749 15.9965 9.78416 15.8569C9.7841 15.8569 9.78404 15.8568 9.78398 15.8568L7.40336 13.5236L7.40335 13.5236C7.1146 13.2407 7.10997 12.7765 7.39315 12.4867C7.67694 12.197 8.14194 12.1934 8.43005 12.4756L10.2275 14.2381L10.2975 14.3068L10.3675 14.2381Z" fill="#262626" stroke="white" stroke-width="0.2"/>
</svg>
